<svg width="512" height="512" viewBox="0 0 512 512" fill="none"
  xmlns="http://www.w3.org/2000/svg">
  <defs>
    <linearGradient id="bg" x1="24" y1="20" x2="488" y2="492" gradientUnits="userSpaceOnUse">
      <stop stop-color="#1A2650"/>
      <stop offset="1" stop-color="#0B1226"/>
    </linearGradient>
    <linearGradient id="tab" x1="114" y1="118" x2="392" y2="388" gradientUnits="userSpaceOnUse">
      <stop stop-color="#9ED9FF"/>
      <stop offset="1" stop-color="#4FAFFF"/>
    </linearGradient>
    <linearGradient id="spark" x1="178" y1="94" x2="420" y2="330" gradientUnits="userSpaceOnUse">
      <stop stop-color="#FFF8A6"/>
      <stop offset="1" stop-color="#FFBE47"/>
    </linearGradient>
  </defs>

  <rect x="10" y="10" width="492" height="492" rx="124" fill="url(#bg)"/>
  <rect x="10" y="10" width="492" height="492" rx="124" stroke="#EFF5FF" stroke-opacity="0.82" stroke-width="12"/>
  <rect x="24" y="24" width="464" height="464" rx="114" stroke="#050915" stroke-opacity="0.56" stroke-width="7"/>

  <rect x="114" y="202" width="200" height="142" rx="26" fill="none" stroke="url(#tab)" stroke-width="20" opacity="0.54"/>
  <rect x="160" y="152" width="224" height="160" rx="28" fill="none" stroke="url(#tab)" stroke-width="24"/>
  <rect x="196" y="192" width="136" height="20" rx="10" fill="url(#tab)" opacity="0.98"/>
  <rect x="196" y="230" width="96" height="20" rx="10" fill="url(#tab)" opacity="0.91"/>

  <path d="M364 72L380 114L422 130L380 146L364 188L348 146L306 130L348 114L364 72Z" fill="url(#spark)"/>
  <path d="M428 186L437 210L461 219L437 228L428 252L419 228L395 219L419 210L428 186Z" fill="url(#spark)" opacity="0.96"/>
  <path d="M132 98L141 122L165 131L141 140L132 164L123 140L99 131L123 122L132 98Z" fill="url(#spark)" opacity="0.89"/>
</svg>
