<svg width="512" height="512" viewBox="0 0 512 512" fill="none"
  xmlns="http://www.w3.org/2000/svg">
  <defs>
    <linearGradient id="bg" x1="56" y1="48" x2="456" y2="464" gradientUnits="userSpaceOnUse">
      <stop stop-color="#1A2650"/>
      <stop offset="1" stop-color="#0B1226"/>
    </linearGradient>
    <linearGradient id="tab" x1="146" y1="146" x2="344" y2="344" gradientUnits="userSpaceOnUse">
      <stop stop-color="#9ED9FF"/>
      <stop offset="1" stop-color="#4FAFFF"/>
    </linearGradient>
    <linearGradient id="spark" x1="206" y1="136" x2="376" y2="296" gradientUnits="userSpaceOnUse">
      <stop stop-color="#FFF8A6"/>
      <stop offset="1" stop-color="#FFBE47"/>
    </linearGradient>
  </defs>

  <rect x="36" y="36" width="440" height="440" rx="112" fill="url(#bg)"/>
  <rect x="36" y="36" width="440" height="440" rx="112" stroke="#EFF5FF" stroke-opacity="0.78" stroke-width="16"/>
  <rect x="54" y="54" width="404" height="404" rx="94" stroke="#050915" stroke-opacity="0.6" stroke-width="10"/>

  <rect x="142" y="192" width="172" height="122" rx="22" fill="none" stroke="url(#tab)" stroke-width="20" opacity="0.58"/>
  <rect x="178" y="160" width="190" height="136" rx="24" fill="none" stroke="url(#tab)" stroke-width="22"/>
  <rect x="206" y="194" width="116" height="16" rx="8" fill="url(#tab)" opacity="0.96"/>
  <rect x="206" y="224" width="84" height="16" rx="8" fill="url(#tab)" opacity="0.88"/>

  <path d="M348 106L359 134L387 145L359 156L348 184L337 156L309 145L337 134L348 106Z" fill="url(#spark)"/>
  <path d="M392 190L398 206L414 212L398 218L392 234L386 218L370 212L386 206L392 190Z" fill="url(#spark)" opacity="0.95"/>
  <path d="M161 127L167 142L182 148L167 154L161 169L155 154L140 148L155 142L161 127Z" fill="url(#spark)" opacity="0.85"/>
</svg>
